<?xml version="1.0" encoding="UTF-8"?>
<!-- Generator: Adobe Illustrator 19.0.0, SVG Export Plug-In . SVG Version: 6.00 Build 0)  -->
<svg xmlns="http://www.w3.org/2000/svg" xmlns:xlink="http://www.w3.org/1999/xlink" version="1.1" id="Layer_1" x="0px" y="0px" viewBox="0 2 98 98" style="enable-background:new 0 2 98 98;" xml:space="preserve" width="512" height="512">
<style type="text/css">
	.st0{fill:url(#SVGID_1_);}
	.st1{fill:url(#SVGID_2_);}
	.st2{fill:url(#SVGID_3_);}
	.st3{fill:url(#SVGID_4_);}
</style>
<g>
	
		<linearGradient id="SVGID_1_" gradientUnits="userSpaceOnUse" x1="25.55" y1="93" x2="25.55" y2="9.4004" gradientTransform="matrix(1 0 0 -1 0 104)">
		<stop offset="0" style="stop-color:#00EFD1"/>
		<stop offset="1" style="stop-color:#00ACEA"/>
	</linearGradient>
	<path class="st0" d="M37.3,14.8H13.8c-1.7,0-3,1.3-3,3v23.4c0,1.7,1.3,3,3,3s3-1.3,3-3V20.8h20.5c1.7,0,3-1.3,3-3   S39,14.8,37.3,14.8z"/>
	
		<linearGradient id="SVGID_2_" gradientUnits="userSpaceOnUse" x1="25.5" y1="93" x2="25.5" y2="9.4004" gradientTransform="matrix(1 0 0 -1 0 104)">
		<stop offset="0" style="stop-color:#00EFD1"/>
		<stop offset="1" style="stop-color:#00ACEA"/>
	</linearGradient>
	<path class="st1" d="M37.2,85.1H16.8V64.7c0-1.7-1.3-3-3-3s-3,1.3-3,3v23.4c0,1.7,1.3,3,3,3h23.4c1.7,0,3-1.3,3-3   S38.9,85.1,37.2,85.1z"/>
	
		<linearGradient id="SVGID_3_" gradientUnits="userSpaceOnUse" x1="72.45" y1="93" x2="72.45" y2="9.4004" gradientTransform="matrix(1 0 0 -1 0 104)">
		<stop offset="0" style="stop-color:#00EFD1"/>
		<stop offset="1" style="stop-color:#00ACEA"/>
	</linearGradient>
	<path class="st2" d="M84.2,14.8H60.7c-1.7,0-3,1.3-3,3c0,1.7,1.3,3,3,3h20.5v20.5c0,1.7,1.3,3,3,3s3-1.3,3-3V17.8   C87.2,16.1,85.9,14.8,84.2,14.8z"/>
	
		<linearGradient id="SVGID_4_" gradientUnits="userSpaceOnUse" x1="72.4" y1="93" x2="72.4" y2="9.4004" gradientTransform="matrix(1 0 0 -1 0 104)">
		<stop offset="0" style="stop-color:#00EFD1"/>
		<stop offset="1" style="stop-color:#00ACEA"/>
	</linearGradient>
	<path class="st3" d="M84.1,61.7c-1.7,0-3,1.3-3,3v20.5H60.7c-1.7,0-3,1.3-3,3s1.3,3,3,3h23.4c1.7,0,3-1.3,3-3V64.7   C87.1,63,85.8,61.7,84.1,61.7z"/>
</g>
<script xmlns=""/></svg>